{"title":"The Ballad of Narayama 1983 720p BluRay DD2.0 x264-CtrlHD.mkv","uid":10697822,"size":7980755602,"categoryP":"video","categoryS":"hd___movies","magnet":"?xt=urn:btih:8536dce87a891f5caee38a197bb69330732309be&amp;dn=The+Ballad+of+Narayama+1983+720p+BluRay+DD2.0+x264-CtrlHD.mkv&amp;tr=udp%3A%2F%2Ftracker.openbittorrent.com%3A80&amp;tr=udp%3A%2F%2Fopen.demonii.com%3A1337&amp;tr=udp%3A%2F%2Ftracker.coppersurfer.tk%3A6969&amp;tr=udp%3A%2F%2Fexodus.desync.com%3A6969","seeders":5,"leechers":0,"uploader":"rpessoa","files":1,"time":1407194893,"description":"In a small village in a valley everyone who reaches the age of 70 must leave the village and go to a certain mountain top to die. If anyone should refuse he or she would disgrace their family. Old Orin is 69. This winter it is her turn to go to the mountain. But first she must make sure that her eldest son Tatsuhei finds a wife. Written by Mattias Thuresson\n &lt;a href=&quot;\nhttp://www.imdb.com/title/tt0084390/&quot; rel=&quot;nofollow&quot; target=&quot;_NEW&quot;&gt;\nhttp://www.imdb.com/title/tt0084390/&lt;/a&gt;\n\nGeneral\nUnique ID : 215316657509280157385305846966496177744 (0xA1FC7AD5A184D3A480E596B1F726AE50)\nComplete name : The Ballad of Narayama 1983 720p BluRay DD2.0 x264-CtrlHD.mkv\nFormat : Matroska\nFormat version : Version 2\nFile size : 7.43 GiB\nDuration : 2h 10mn\nOverall bit rate : 8 181 Kbps\nEncoded date : UTC 2013-12-11 16:59:42\nWriting application : mkvmerge v6.5.0 ('Isn't she lovely') built on Oct 20 2013 12:50:05\nWriting library : libebml v1.3.0 + libmatroska v1.4.1\n\nVideo\nID : 1\nFormat : AVC\nFormat/Info : Advanced Video Codec\nFormat profile : &lt;a class=&quot;__cf_email__&quot; href=&quot;/cdn-cgi/l/email-protection&quot; data-cfemail=&quot;f9b1909e91b9b5cdd7c8&quot;&gt;[email&amp;#160;protected]&lt;/a&gt;&lt;script cf-hash='f9e31' type=&quot;text/javascript&quot;&gt;\n/* &lt;![CDATA[ */!function(){try{var t=&quot;currentScript&quot;in document?document.currentScript:function(){for(var t=document.getElementsByTagName(&quot;script&quot;),e=t.length;e--;)if(t[e].getAttribute(&quot;cf-hash&quot;))return t[e]}();if(t&amp;&amp;t.previousSibling){var e,r,n,i,c=t.previousSibling,a=c.getAttribute(&quot;data-cfemail&quot;);if(a){for(e=&quot;&quot;,r=parseInt(a.substr(0,2),16),n=2;a.length-n;n+=2)i=parseInt(a.substr(n,2),16)^r,e+=String.fromCharCode(i);e=document.createTextNode(e),c.parentNode.replaceChild(e,c)}}}catch(u){}}();/* ]]&gt; */&lt;/script&gt;\nFormat settings, CABAC : Yes\nFormat settings, ReFrames : 9 frames\nCodec ID : V_MPEG4/ISO/AVC\nDuration : 2h 10mn\nBit rate : 7 570 Kbps\nWidth : 1 280 pixels\nHeight : 692 pixels\nDisplay aspect ratio : 1.850\nFrame rate : 23.976 fps\nColor space : YUV\nChroma subsampling : 4:2:0\nBit depth : 8 bits\nScan type : Progressive\nBits/(Pixel*Frame) : 0.356\nStream size : 6.88 GiB (93%)\nWriting library : x264 core 140 r2377kMod 1ca7bb9\nEncoding settings : cabac=1 / ref=9 / deblock=1:-3:-3 / analyse=0x3:0x113 / me=umh / subme=10 / psy=1 / fade_compensate=0.00 / psy_rd=1.15:0.00 / mixed_ref=1 / me_range=16 / chroma_me=1 / trellis=2 / 8x8dct=1 / cqm=0 / deadzone=21,11 / fast_pskip=0 / chroma_qp_offset=-2 / threads=6 / lookahead_threads=1 / sliced_threads=0 / nr=0 / decimate=0 / interlaced=0 / bluray_compat=0 / constrained_intra=0 / fgo=0 / bframes=8 / b_pyramid=2 / b_adapt=2 / b_bias=0 / direct=3 / weightb=1 / open_gop=0 / weightp=2 / keyint=250 / keyint_min=23 / scenecut=40 / intra_refresh=0 / rc=crf / mbtree=0 / crf=18.0000 / qcomp=0.70 / qpmin=0 / qpmax=69 / qpstep=4 / ip_ratio=1.20 / pb_ratio=1.10 / aq=1:0.80\nLanguage : English\nDefault : Yes\nForced : No\n\nAudio\nID : 2\nFormat : AC-3\nFormat/Info : Audio Coding 3\nMode extension : CM (complete main)\nCodec ID : A_AC3\nDuration : 2h 10mn\nBit rate mode : Constant\nBit rate : 448 Kbps\nChannel(s) : 2 channels\nChannel positions : Front: L R\nSampling rate : 48.0 KHz\nBit depth : 16 bits\nCompression mode : Lossy\nStream size : 417 MiB (5%)\nLanguage : Japanese\nDefault : Yes\nForced : No\n\nText #1\nID : 3\nFormat : UTF-8\nCodec ID : S_TEXT/UTF8\nCodec ID/Info : UTF-8 Plain Text\nLanguage : English\nDefault : No\nForced : No\n\nText #2\nID : 4\nFormat : UTF-8\nCodec ID : S_TEXT/UTF8\nCodec ID/Info : UTF-8 Plain Text\nLanguage : French\nDefault : No\nForced : No\n\nMenu\n00:00:00.000 : en:A FAMILY\n00:07:19.689 : en:END OF WINTER\n00:13:17.088 : en:BRIDES AND WIDOWS\n00:19:37.718 : en:SONGS\n00:24:48.237 : en:NEW BEGINNINGS\n00:34:16.054 : en:TEETH\n00:37:41.843 : en:YAKKO'S BURDEN\n00:47:34.435 : en:MATSUYAN\n00:52:50.459 : en:THE AMAYAS\n01:11:39.504 : en:FRUSTRATION\n01:19:34.353 : en:GHOSTS\n01:23:32.799 : en:FINAL PREPARATIONS\n01:26:14.795 : en:DIRECTIONS\n01:33:58.925 : en:THE JOURNEY\n01:52:26.740 : en:NARAYAMA\n02:05:25.935 : en:RETURN","torrent":{"xt":"urn:btih:8536dce87a891f5caee38a197bb69330732309be","amp;dn":"The+Ballad+of+Narayama+1983+720p+BluRay+DD2.0+x264-CtrlHD.mkv","amp;tr":["udp%3A%2F%2Ftracker.openbittorrent.com%3A80","udp%3A%2F%2Fopen.demonii.com%3A1337","udp%3A%2F%2Ftracker.coppersurfer.tk%3A6969","udp%3A%2F%2Fexodus.desync.com%3A6969"],"infoHash":"8536dce87a891f5caee38a197bb69330732309be","infoHashBuffer":{"type":"Buffer","data":[133,54,220,232,122,137,31,92,174,227,138,25,123,182,147,48,115,35,9,190]},"announce":[],"urlList":[]}}